<svg id="icon-logo-dark" viewBox="0 0 32 32" xmlns="http://www.w3.org/2000/svg">
  <path fill="#000000" d="M16.238 10.607c-2.4 0-3.742-0.59-6.104-0.624-0.079-0.001-0.119-0.094-0.060-0.145 1.685-1.49 4.931-1.837 6.059-1.837 0.948 0 4.091 0.275 5.921 1.827 0.062 0.053 0.021 0.149-0.062 0.147-2.368-0.037-2.385 0.631-5.754 0.631l0.001 0.001z"/>
  <path fill="#000000" d="M12.531 22.777v0.001c0.163 0 0.307-0.106 0.361-0.256 0.264-0.732 1.184-2.79 3.225-2.79s2.962 2.058 3.224 2.79c0.053 0.15 0.197 0.256 0.361 0.256h7.34c0.146 0 0.232-0.16 0.154-0.28-0.934-1.436-0.707-2.382-0.403-3.639 0.212-0.881 0.461-1.915 0.373-3.378-0.133-2.197-1.425-3.58-3.841-4.087-1.255-0.263-2.877-0.016-4.398 0.217-0.968 0.148-1.895 0.29-2.662 0.29-1.029 0-2.091-0.17-3.128-0.337-1.498-0.241-2.943-0.473-4.158-0.17-2.341 0.582-3.501 1.795-3.931 4.216-0.161 1.257 0.106 2.213 0.353 3.101 0.334 1.2 0.633 2.275-0.199 3.8-0.065 0.119 0.022 0.266 0.162 0.266h7.166zM11.483 19.348c-1.435 0.816-3.301 0.803-4.025-0.808-0.822-1.831-0.023-4.42 2.29-5.061 2.423-0.671 4.768-0.343 4.68 1.423-0.066 1.313-1.267 3.492-2.945 4.445v0.001zM24.89 18.539c-0.723 1.612-2.59 1.623-4.025 0.808-1.678-0.954-2.879-3.134-2.945-4.445-0.088-1.766 2.256-2.094 4.68-1.423 2.313 0.641 3.112 3.229 2.29 5.061v-0.001z"/>
</svg>