<svg xmlns="http://www.w3.org/2000/svg" width="72" height="50" viewBox="0 0 72 50" fill="none">
<g clip-path="url(#clip0_43_818)">
<path d="M0.525391 36.5332H5.24736C8.03944 36.5332 9.78359 37.8276 9.76548 39.8086C9.7577 40.6613 9.76548 41.7253 8.70634 42.699C9.43979 42.699 10.2812 43.7363 10.2812 45.7933C10.2812 48.4089 8.81434 49.8094 6.50949 49.8094H0.525391V36.5332ZM3.42198 39.3777V41.7879H5.70865C6.55444 41.7879 6.75657 41.0438 6.75657 40.6563V40.5644C6.75657 39.8086 6.47148 39.4144 5.70865 39.4144L3.42198 39.3777ZM3.42198 44.2975V47.1495H6.10349C6.74445 47.1495 6.98633 46.4663 6.98633 45.8634V45.6655C6.98633 44.7552 6.57085 44.3151 5.80458 44.3151L3.42198 44.2967V44.2975Z" fill="#1E1E1E"/>
<path d="M13.6138 43.9093L9.23047 36.5342H13.0419L15.1576 40.8602L17.4832 36.5342H20.9516L16.7013 43.9093V49.8096H13.6138V43.9093Z" fill="#1E1E1E"/>
<path d="M43.451 40.8237C43.451 43.5044 41.4001 45.6616 36.9261 45.6616V49.8047H33.7988V36.5527H38.5475C42.2165 36.5527 43.451 38.1428 43.451 40.8237ZM36.9261 43.1854H38.0171C39.4244 43.1854 40.5284 42.3661 40.5284 40.8237C40.5284 39.2811 39.6309 38.8602 38.0171 38.8602H36.9261V43.1862V43.1854Z" fill="#1E1E1E"/>
<path d="M0.525391 34.7454V17.3711H4.9476L10.016 26.6671L15.3608 17.3711H19.783V34.7454H15.3608V26.8074L10.016 34.7454L4.9476 26.8074V34.7454H0.525391Z" fill="#1E1E1E"/>
<path d="M25.2246 17.3721H31.2433L35.6344 34.7464H31.7262L30.6982 31.5152H25.6315L24.6804 34.7464H20.6953L25.2255 17.3721H25.2246ZM28.2344 21.957L26.2432 28.3191H30.0788L28.2344 21.957Z" fill="#1E1E1E"/>
<path d="M51.1211 17.3719H63.5196V21.2988H55.0691V24.0331H63.5196V27.8605H55.0691V31.1167H63.5196V34.7454H51.1211V17.3711V17.3719Z" fill="#1E1E1E"/>
<path d="M44.1406 36.5527H53.5974V39.5483H47.1521V41.6337H53.5974V44.5534H47.1521V47.0371H53.5974V49.8047H44.1406V36.5527Z" fill="#1E1E1E"/>
<path d="M25.1665 36.5527H29.7571L33.1064 49.8047H30.126L29.3416 47.3403H25.4766L24.7509 49.8047H21.7109L25.1665 36.5527ZM27.4626 40.0503L25.944 44.9025H28.8699L27.4626 40.0503Z" fill="#1E1E1E"/>
<path d="M42.1204 34.7707L36.4922 34.7548V17.3805L42.1204 17.3262C47.3935 17.3262 50.2098 19.8784 50.2098 26.1795C50.2098 31.0133 47.5067 34.7707 42.1204 34.7707ZM40.3667 31.0133H42.1204C44.5816 31.0133 46.083 29.4483 46.083 26.1795C46.083 22.9108 44.9116 21.3866 42.1204 21.3866H40.3667V31.0133Z" fill="#1E1E1E"/>
<path fill-rule="evenodd" clip-rule="evenodd" d="M54.7233 40.2368C54.7233 38.1699 56.2051 36.6683 58.6023 36.4637C60.603 36.2925 62.4257 37.0165 63.8086 37.9335L62.5448 40.7413C62.5448 40.7413 61.1308 39.9228 60.2996 39.6606C59.6474 39.4543 58.7802 39.6489 58.6023 40.0907C58.4244 40.5325 58.4573 40.9843 59.0333 41.2733C59.0793 41.2966 59.1307 41.3217 59.1868 41.3501C59.505 41.5071 59.9851 41.7451 60.5294 42.0759H60.5384C60.5384 42.0759 61.7078 42.7047 62.6211 43.7152C62.6952 43.792 62.7688 43.8714 62.8403 43.9516H62.8249C63.3146 44.5554 63.6868 45.2736 63.6868 46.0628C63.6868 48.1289 61.9789 49.7733 59.5817 49.978C57.5811 50.1492 55.7525 49.2372 54.3691 48.3202L55.3464 45.5083C55.3464 45.5083 57.2798 46.376 58.11 46.6391C58.7622 46.8453 59.6294 46.6508 59.8073 46.2089C59.9851 45.7671 60.0079 45.4523 59.3763 45.0264C59.1794 44.8936 58.9433 44.7558 58.6764 44.6004C58.4768 44.4844 58.2603 44.3583 58.0306 44.2163C57.7807 44.0852 54.7207 42.4366 54.7207 40.2368H54.7233Z" fill="#1E1E1E"/>
<path d="M68.7852 20.2233V17.3262H69.4798L70.3464 18.8762L71.1739 17.3262H71.9971V20.2233H71.3025V18.7935L70.3464 20.2233L69.5232 18.7935V20.2233H68.7852Z" fill="#1E1E1E"/>
<path d="M65.8906 17.9358V17.3262H68.5239V17.9358H67.5641V20.2233H66.8594V17.9358H65.8906Z" fill="#1E1E1E"/>
<path d="M14.9547 1.33555L13.4611 1.08918C13.3739 1.07499 13.3591 0.962243 13.4395 0.928001C16.9106 -0.54686 20.5708 0.0569465 23.2385 2.37279C23.3335 2.45548 23.3085 2.60496 23.1953 2.66259C22.715 2.90729 22.1811 3.26306 21.9427 3.42758C21.8693 3.47853 21.7682 3.46934 21.7034 3.40921C19.9938 1.82661 16.832 1.61115 14.9547 1.33471V1.33555Z" fill="#1E1E1E"/>
<path d="M49.0923 1.33555L50.5868 1.08918C50.6741 1.07499 50.6888 0.962243 50.6084 0.928001C47.1365 -0.54686 43.4762 0.0569465 40.8086 2.37279C40.7135 2.45548 40.7386 2.60496 40.8518 2.66259C41.3321 2.90729 41.866 3.26306 42.1044 3.42758C42.1778 3.47853 42.2789 3.46934 42.3437 3.40921C44.0533 1.82661 47.2151 1.61115 49.0923 1.33471V1.33555Z" fill="#1E1E1E"/>
<path d="M32.1127 2.60648C29.7128 2.60648 28.3703 2.01687 26.0085 1.98263C25.929 1.98179 25.8893 1.88909 25.948 1.83731C27.6326 0.347419 30.879 0 32.0073 0C32.955 0 36.0986 0.274762 37.9283 1.82729C37.9905 1.87991 37.949 1.97595 37.8661 1.97428C35.4982 1.93753 35.481 2.60564 32.1118 2.60564L32.1127 2.60648Z" fill="#1E1E1E"/>
<path fill-rule="evenodd" clip-rule="evenodd" d="M2.35349 14.777H0.892668C0.636957 14.777 0.460725 14.5265 0.547979 14.2943C0.70866 13.8651 0.91772 13.2521 0.94536 12.898C0.97128 12.5597 0.960046 12.28 0.948817 12.026C0.927223 11.5141 0.909943 11.1074 1.21921 10.5395C1.47319 10.0735 1.75309 9.70017 2.03904 9.32022C2.39755 8.84332 2.76383 8.35564 3.09642 7.65909C3.34954 7.12795 3.51368 6.37213 3.68905 5.5629C3.85059 4.81712 4.02164 4.02623 4.28167 3.32555C4.82419 1.86572 5.01683 1.34626 6.34291 1.12913C7.6387 0.916997 9.11941 1.32622 10.6217 1.74296C11.483 1.98181 12.352 2.22233 13.1978 2.34843C13.7308 2.42777 14.2716 2.49709 14.808 2.56557C17.0602 2.85369 19.2562 3.1343 20.6341 4.16153C20.7973 4.28346 20.7973 4.5148 20.6738 4.67514C20.1581 5.34491 19.7279 6.53919 19.6458 7.97481C19.5862 9.0062 19.8384 10.2906 20.3023 11.8783C20.5702 12.7944 20.095 13.7849 19.7797 14.443C19.7589 14.4856 19.7399 14.5265 19.7209 14.5657C19.6605 14.6935 19.5292 14.7779 19.3832 14.7779H8.14238C7.94364 14.7779 7.78296 14.6217 7.77348 14.4296C7.69402 12.786 7.04178 11.0707 5.36064 11.0707C3.67954 11.0707 2.92624 13.1176 2.7215 14.463C2.69472 14.6417 2.54009 14.7787 2.35349 14.7787V14.777ZM5.19566 9.05548C4.51232 8.34393 4.82937 7.69502 5.18529 6.96759C5.30621 6.72043 5.43237 6.46404 5.52391 6.19259C5.62413 5.89698 5.70449 5.58713 5.78396 5.28228C6.09583 4.08219 6.3904 2.94806 7.82706 2.94806C7.82706 2.94806 8.81706 3.03074 9.38718 3.35896C10.8255 4.18658 10.7297 7.27161 9.29734 8.73728C8.07064 9.99249 5.81249 9.6977 5.19566 9.0546V9.05548ZM12.4315 10.7249C13.8077 11.6962 16.0209 11.4406 16.9859 10.689C18.2549 9.70017 18.5374 6.38883 17.461 5.42259C16.3 4.38117 15.0379 4.26592 13.6746 4.89729C12.1335 5.61136 11.4717 10.0485 12.4307 10.7249H12.4315Z" fill="#1E1E1E"/>
<path fill-rule="evenodd" clip-rule="evenodd" d="M61.6926 14.777H63.1527C63.4084 14.777 63.5847 14.5265 63.4973 14.2943C63.3364 13.8651 63.1273 13.2521 63.0998 12.898C63.0738 12.5597 63.0849 12.28 63.0966 12.026C63.1178 11.5141 63.1352 11.1074 62.826 10.5395C62.5719 10.0735 62.2919 9.70017 62.006 9.32022C61.6476 8.84332 61.2812 8.35564 60.9488 7.65909C60.6957 7.12795 60.5316 6.37213 60.3563 5.5629C60.1949 4.81712 60.0233 4.02623 59.7634 3.32555C59.2208 1.86572 59.0286 1.34626 57.7024 1.12913C56.4064 0.916997 54.9256 1.32622 53.4237 1.74296C52.5622 1.98181 51.6932 2.22233 50.8474 2.34843C50.3144 2.42777 49.7736 2.49709 49.2372 2.56557C46.985 2.85369 44.789 3.1343 43.4111 4.16153C43.2479 4.28346 43.2479 4.5148 43.3714 4.67514C43.8871 5.34491 44.3173 6.53919 44.3994 7.97481C44.459 9.0062 44.2067 10.2906 43.7429 11.8783C43.5001 12.7092 43.8673 13.6003 44.1739 14.2492C44.3251 14.5691 44.6594 14.7779 45.0231 14.7779H55.9035C56.103 14.7779 56.2629 14.6217 56.2725 14.4296C56.3519 12.786 57.0041 11.0707 58.6855 11.0707C60.3664 11.0707 61.1208 13.1176 61.3246 14.463C61.3511 14.6417 61.5062 14.7787 61.6926 14.7787V14.777ZM58.8512 9.05548C59.5347 8.34393 59.2176 7.69502 58.8618 6.96759C58.7406 6.72043 58.6156 6.46404 58.523 6.19259C58.4229 5.89698 58.3425 5.58713 58.263 5.28228C57.9512 4.08219 57.6563 2.94806 56.22 2.94806C56.22 2.94806 55.23 3.03074 54.6599 3.35896C53.2215 4.18658 53.3173 7.27161 54.7493 8.73728C55.9765 9.99249 58.2345 9.6977 58.8512 9.0546V9.05548ZM51.6154 10.7249C50.2392 11.6962 48.026 11.4406 47.061 10.689C45.792 9.70017 45.5095 6.38883 46.5859 5.42259C47.747 4.38117 49.0091 4.26592 50.3723 4.89729C51.9134 5.61136 52.5752 10.0485 51.6163 10.7249H51.6154Z" fill="#1E1E1E"/>
<path fill-rule="evenodd" clip-rule="evenodd" d="M28.4059 14.7767H21.24C21.1 14.7767 21.0136 14.6297 21.0784 14.5103C21.9104 12.9853 21.6115 11.9105 21.2771 10.7104C21.0301 9.82259 20.7631 8.86636 20.9238 7.6095C21.3532 5.18842 22.5134 3.97578 24.8545 3.39369C26.0691 3.09136 27.5143 3.32353 29.0123 3.56405C30.0499 3.73025 31.1115 3.90062 32.1404 3.90062C32.9076 3.90062 33.8345 3.75864 34.8021 3.61082C36.3233 3.37782 37.9449 3.13062 39.2001 3.39369C41.6155 3.90062 42.9078 5.28363 43.0409 7.48089C43.129 8.94404 42.8802 9.97796 42.6677 10.859C42.3644 12.1159 42.1373 13.0621 43.0711 14.4978C43.1489 14.6172 43.0633 14.7775 42.9174 14.7775H35.577C35.4128 14.7775 35.2694 14.6723 35.2159 14.522C34.9533 13.7896 34.0324 11.7318 31.9918 11.7318C29.9514 11.7318 29.0305 13.7896 28.767 14.522C28.7134 14.6715 28.5691 14.7775 28.4059 14.7775V14.7767ZM27.358 11.3476C25.9231 12.1635 24.0571 12.151 23.3332 10.5392C22.5116 8.7077 23.3099 6.11878 25.6233 5.47821C28.0465 4.80758 30.3911 5.13496 30.303 6.90131C30.2373 8.21414 29.0357 10.3938 27.358 11.3468V11.3476ZM40.7646 10.5392C40.0415 12.151 38.1746 12.1627 36.7398 11.3476C35.0621 10.3938 33.8605 8.21414 33.7948 6.90213C33.7067 5.1358 36.0512 4.80842 38.4744 5.47904C40.787 6.11961 41.5861 8.70852 40.7646 10.54V10.5392Z" fill="#1E1E1E"/>
</g>
<defs>
<clipPath id="clip0_43_818">
<rect width="72" height="50" fill="white"/>
</clipPath>
</defs>
</svg>