<svg xmlns="http://www.w3.org/2000/svg" viewBox="0 0 32 32">
  <path fill="#fff" style="fill: var(--color1, #fff)" d="M22.406 18.87c-0.555 0.744-1.723 1.979-2.373 1.979h-3.019v-1.981h2.405c0.344 0 0.672-0.139 0.909-0.384 1.235-1.28 1.949-2.803 1.949-4.437 0-2.787-2.083-5.251-5.264-6.736v-1.331c0-0.573-0.464-1.037-1.037-1.037s-1.037 0.464-1.037 1.037v0.552c-0.891-0.261-1.835-0.459-2.821-0.573 1.632 1.773 2.629 4.144 2.629 6.744 0 2.331-0.797 4.472-2.136 6.168h2.328v1.984h-3.408c-0.461 0-0.835-0.373-0.835-0.835v-0.867c0-0.152-0.123-0.277-0.277-0.277h-4.493c-0.088 0-0.163 0.072-0.163 0.16-0.003 3.549 2.805 6.213 6.163 6.213h9.48c2.272 0 3.288-2.912 4.619-4.765 0.517-0.717 1.757-1.293 2.133-1.453 0.069-0.029 0.109-0.093 0.109-0.168v-1.152c0-0.117-0.115-0.205-0.229-0.173 0 0-5.48 1.259-5.544 1.277-0.064 0.019-0.088 0.056-0.088 0.056v-0.002z"/>
  <path fill="#fff" style="fill: var(--color1, #fff)" d="M12.992 12.696c0-1.787-0.613-3.432-1.637-4.733l-5.157 8.923h5.547c0.789-1.203 1.248-2.643 1.248-4.189l-0.002-0.002z"/>
  <path fill="#0086ff" style="fill: var(--color2, #0086ff)" d="M16.139 0c-8.947-0.074-16.213 7.192-16.139 16.139 0.075 8.688 7.173 15.787 15.859 15.859 8.947 0.077 16.216-7.192 16.139-16.139-0.072-8.685-7.171-15.784-15.859-15.859zM11.355 7.963c1.024 1.301 1.637 2.947 1.637 4.733 0 1.547-0.459 2.987-1.248 4.189h-5.547l5.158-8.922zM28.267 17.71v1.152c0 0.075-0.040 0.139-0.109 0.168-0.376 0.16-1.616 0.736-2.133 1.453-1.331 1.853-2.347 4.765-4.619 4.765h-9.48c-3.357 0-6.165-2.664-6.163-6.213 0-0.088 0.075-0.16 0.163-0.16h4.493c0.155 0 0.277 0.125 0.277 0.277v0.867c0 0.461 0.373 0.835 0.835 0.835h3.408v-1.984h-2.328c1.339-1.696 2.136-3.837 2.136-6.168 0-2.6-0.997-4.971-2.629-6.744 0.987 0.115 1.931 0.312 2.821 0.573v-0.552c0-0.573 0.464-1.037 1.037-1.037s1.037 0.464 1.037 1.037v1.331c3.181 1.485 5.264 3.949 5.264 6.736 0 1.635-0.715 3.157-1.949 4.437-0.237 0.245-0.565 0.384-0.909 0.384h-2.405v1.981h3.019c0.651 0 1.819-1.235 2.373-1.979 0 0 0.024-0.037 0.088-0.056s5.544-1.277 5.544-1.277c0.115-0.032 0.229 0.056 0.229 0.173v0.002z"/>
</svg>
